<?xml version="1.0" encoding="UTF-8" standalone="no"?>
<!-- Created with Inkscape (http://www.inkscape.org/) -->

<svg
   width="500"
   height="500"
   viewBox="0 0 132.29167 132.29166"
   version="1.1"
   id="svg1"
   sodipodi:docname="agar-flat3.svg"
   inkscape:version="1.3.2 (091e20ef0f, 2023-11-25)"
   xmlns:inkscape="http://www.inkscape.org/namespaces/inkscape"
   xmlns:sodipodi="http://sodipodi.sourceforge.net/DTD/sodipodi-0.dtd"
   xmlns="http://www.w3.org/2000/svg"
   xmlns:svg="http://www.w3.org/2000/svg"
   xmlns:rdf="http://www.w3.org/1999/02/22-rdf-syntax-ns#"
   xmlns:cc="http://creativecommons.org/ns#">
  <sodipodi:namedview
     id="namedview1"
     pagecolor="#ffffff"
     bordercolor="#666666"
     borderopacity="1.0"
     inkscape:showpageshadow="2"
     inkscape:pageopacity="0.0"
     inkscape:pagecheckerboard="0"
     inkscape:deskcolor="#d1d1d1"
     inkscape:document-units="mm"
     showguides="true"
     inkscape:zoom="1.0271535"
     inkscape:cx="36.508663"
     inkscape:cy="184.49044"
     inkscape:window-width="1812"
     inkscape:window-height="979"
     inkscape:window-x="520"
     inkscape:window-y="253"
     inkscape:window-maximized="0"
     inkscape:current-layer="layer1"
     showgrid="true">
    <inkscape:grid
       id="grid6"
       units="px"
       originx="0"
       originy="0"
       spacingx="0.26458334"
       spacingy="0.26458332"
       empcolor="#3f3fff"
       empopacity="0.25098039"
       color="#3f3fff"
       opacity="0.1254902"
       empspacing="5"
       dotted="false"
       gridanglex="30"
       gridanglez="30"
       visible="true" />
  </sodipodi:namedview>
  <defs
     id="defs1" />
  <g
     inkscape:label="Layer 1"
     inkscape:groupmode="layer"
     id="layer1">
    <path
       d="m 24.425382,39.385193 c -2.824675,0.02403 -5.195451,0.214762 -5.881811,0.499194 -5.592252,3.832076 -9.9013996,7.96153 -12.8359091,13.851868 l -0.1405598,28.324886 1.3213663,1.471745 c 2.3688498,0.771022 7.1789846,0.822887 9.7006996,0.02015 l 0.766879,-0.736906 c 0,0 0.38672,-6.142519 -0.130225,-13.002824 l 0.63562,-0.661459 4.677234,-0.02325 0.632519,0.588595 c -0.516723,4.024962 -0.02997,13.191959 -0.02997,13.191959 l 0.70435,0.700733 c 2.675615,0.797016 6.834416,0.926882 9.777698,-0.05891 l 1.252636,-1.390096 c 0.01917,-0.525474 0.04164,-1.07294 0.05064,-1.640209 0.129505,-8.207692 -0.577225,-39.445138 -0.577225,-39.445138 l -1.317233,-1.191142 c -2.503233,-0.380556 -5.782034,-0.523225 -8.60671,-0.499194 z m -2.181262,12.73824 c 0.585049,0.0051 1.194871,0.06446 1.740463,0.150379 l 0.978234,0.910022 c 0,0 0.276961,3.833406 -0.09457,5.788794 l -0.905372,0.842326 c -1.654586,-0.08854 -3.916544,-0.2083 -5.648234,0.0186 L 17.276465,58.88116 c -0.237956,-0.282013 -0.294474,-1.962403 -0.01964,-2.765722 0.770866,-1.446136 1.972813,-2.709152 3.396175,-3.816821 0.445826,-0.131161 1.006069,-0.180266 1.591117,-0.175184 z"
       style="fill:#629780;stroke:#000000;stroke-width:0.79375;fill-opacity:1;stroke-dasharray:none"
       id="path7" />
    <path
       style="fill:#629780;stroke:#000000;stroke-width:0.79375;stroke-linecap:butt;stroke-linejoin:miter;stroke-opacity:1;fill-opacity:1;stroke-dasharray:none"
       d="m 35.519691,41.262871 c 0,0 -0.05225,34.233291 0.628058,40.799556 l 1.290285,1.273451 c 2.000814,1.046082 22.782066,1.246565 25.442859,-0.01953 l 0.976259,-1.300889 C 64.079933,73.355563 63.994629,66.96898 63.590516,60.878078 l -1.198837,-1.289347 c -5.26793,-0.519206 -7.563463,-0.656706 -12.051783,0.113521 l -0.53792,0.566389 c -0.34606,2.695923 -0.03584,7.834643 -0.03584,7.834643 l 0.468802,0.455652 c 0,0 1.633974,0.215563 3.787704,0.05392 l 0.706897,0.7816 -0.0049,2.754156 -1.07089,0.992738 c 0,0 -3.579934,-0.307446 -7.174698,0.05861 l -0.977453,-1.135283 -0.105691,-18.793775 1.414138,-1.315753 15.888463,-0.05647 1.085289,-1.009771 0.0058,-9.3229 -1.728554,-1.612894 C 51.893977,39.027596 45.017363,39.165595 37.163018,39.797294 Z"
       id="path3"
       sodipodi:nodetypes="ccccccccccccccccccccccccc" />
    <path
       d="m 79.755339,39.646159 c -4.0738,0.01966 -8.095962,0.149011 -13.090158,0.367419 l -1.757515,1.594218 c 0,0 -0.241662,35.968123 -0.05271,40.347925 l 1.235067,1.278992 c 2.581753,0.38334 6.670379,0.417701 8.884729,0.02997 l 1.232999,-1.414384 C 76.676699,78.093381 76.007764,69.12653 76.007764,69.12653 l 0.557072,-0.640271 6.240446,-0.01292 0.593245,0.646989 c 0,0 -0.615701,9.174496 -0.07338,12.762528 l 1.086239,1.362708 c 2.979929,0.465959 7.458973,0.490212 9.529651,-0.0646 l 1.250053,-1.27279 C 95.291949,76.558374 94.629366,41.22229 94.629366,41.22229 L 93.157104,39.937097 C 87.954707,39.716616 83.829138,39.626498 79.755339,39.646159 Z m 0.117822,12.465906 c 0.82204,0.0083 1.637817,0.07155 2.616378,0.164331 l 0.975651,1.001489 v 5.596041 l -0.998906,1.02526 c -1.573194,-0.133424 -3.652298,-0.145542 -5.345927,0 l -0.984953,-1.009241 -0.03617,-5.680273 1.120345,-0.933276 c 1.003492,-0.12583 1.831544,-0.172594 2.653585,-0.164331 z"
       style="fill:#629780;stroke:#000000;stroke-width:0.79375;fill-opacity:1;stroke-dasharray:none"
       id="path8" />
    <path
       d="m 105.78217,39.479244 c -2.74641,-0.0052 -5.53741,0.08834 -8.459428,0.285771 l -1.312582,1.36219 c 0,0 -0.24948,39.526924 0.558623,40.910165 l 1.011824,1.118795 c 2.812013,0.253341 5.797163,0.258939 8.686293,0.03152 l 0.97255,-1.055749 c 0.34882,-6.667921 -0.16537,-12.224577 -0.16537,-12.224577 l 1.08883,-1.284676 c 0.94365,-0.04678 1.76384,-0.0239 2.65617,0.0186 l 1.23816,1.317233 c 0,0 2.56756,6.275784 5.48546,12.416813 l 1.0759,0.7953 c 3.07848,0.313665 5.69493,0.297944 7.96282,0.01137 l 1.24179,-1.28726 c 0,0 0.0472,-2.100679 0.0294,-4.23075 -1.6165,-3.351731 -5.60948,-8.944157 -5.60948,-8.944157 l 0.002,-1.638659 c 0,0 3.26165,-2.488427 4.9966,-6.17275 0.46446,-3.58503 0.0176,-7.223332 0.0176,-7.223332 -4.71194,-6.122596 -7.62058,-9.317878 -13.28602,-13.89941 -2.74313,-0.197545 -5.44481,-0.301265 -8.19123,-0.306441 z m 1.9451,12.852962 1.08934,0.03927 0.73898,0.01137 c 1.85659,1.10158 2.67431,2.603243 3.38997,4.494816 l -0.009,1.893425 -0.77825,0.666626 c -1.61526,-0.300964 -2.99223,-0.216033 -4.28294,-0.04444 l -1.12138,-0.98857 c -0.30976,-2.012881 -0.0899,-4.77697 -0.0899,-4.77697 z"
       style="fill:#629780;stroke:#000000;stroke-width:0.79375;fill-opacity:1;stroke-dasharray:none"
       id="path9" />
  </g>
  <metadata
     id="metadata1">
    <rdf:RDF>
      <cc:License
         rdf:about="http://creativecommons.org/licenses/by-sa/4.0/">
        <cc:permits
           rdf:resource="http://creativecommons.org/ns#Reproduction" />
        <cc:permits
           rdf:resource="http://creativecommons.org/ns#Distribution" />
        <cc:requires
           rdf:resource="http://creativecommons.org/ns#Notice" />
        <cc:requires
           rdf:resource="http://creativecommons.org/ns#Attribution" />
        <cc:permits
           rdf:resource="http://creativecommons.org/ns#DerivativeWorks" />
        <cc:requires
           rdf:resource="http://creativecommons.org/ns#ShareAlike" />
      </cc:License>
      <cc:Work
         rdf:about="">
        <cc:license
           rdf:resource="http://creativecommons.org/licenses/by-sa/4.0/" />
      </cc:Work>
    </rdf:RDF>
  </metadata>
</svg>
